<svg width="20" height="20" viewBox="0 0 20 20" fill="none" xmlns="http://www.w3.org/2000/svg">
<path d="M9.98124 0C9.23077 0 8.4803 0.0759016 7.72983 0.265655C7.72983 0.303606 7.72983 0.341556 7.72983 0.379507V12.7135C7.72983 12.9791 7.50469 13.1689 7.27955 13.1689H6.37899C6.19137 13.1689 6.04128 13.0171 6.04128 12.8273V0.796964C2.47655 2.31499 0 5.88235 0 9.98102C0 15.5218 4.46529 20 10.0188 20C15.5722 20 20 15.5218 20 10.019C20 4.51613 15.4972 0 9.98124 0ZM9.79362 14.1556C9.79362 14.3833 9.606 14.5731 9.38086 14.5731H8.4803C8.25516 14.5731 8.06754 14.3833 8.06754 14.1556V7.81784C8.06754 7.59013 8.25516 7.40038 8.4803 7.40038H9.38086C9.606 7.40038 9.79362 7.59013 9.79362 7.81784V14.1556ZM11.8199 14.7628C11.8199 14.9905 11.6323 15.1803 11.4071 15.1803H10.5066C10.2814 15.1803 10.0938 14.9905 10.0938 14.7628V7.21063C10.0938 6.98292 10.2814 6.79317 10.5066 6.79317H11.4071C11.6323 6.79317 11.8199 6.98292 11.8199 7.21063V14.7628ZM13.8462 13.6243C13.8462 13.852 13.6585 14.0417 13.4334 14.0417H12.5328C12.3077 14.0417 12.1201 13.852 12.1201 13.6243V8.42505C12.1201 8.19734 12.3077 8.00759 12.5328 8.00759H13.4334C13.6585 8.00759 13.8462 8.19734 13.8462 8.42505V13.6243Z" fill="#6D547A"/>
</svg>
