<svg width="48" height="48" viewBox="0 0 48 48" fill="none" xmlns="http://www.w3.org/2000/svg">
<g clip-path="url(#clip0_1944_1650)">
<path d="M45.8721 8.48521C45.3835 6.60355 43.8129 4.72189 40.9858 2.62722C38.7172 0.95858 36.309 0 34.3894 0C34.0054 0 33.6564 0.0355013 33.3074 0.106507C32.4348 0.284022 31.667 0.923075 31.1784 1.88166C30.585 3.01775 30.4454 4.54438 30.8294 5.46746C30.969 5.75148 31.1435 6.10651 31.3529 6.42603C29.5031 7.56213 28.456 7.88166 28.3164 7.91716C33.1329 9.55029 37.1466 12.9586 39.6596 17.3964L39.6945 16.9704C39.7992 15.7988 40.1482 14.4497 40.6368 13.0651C41.1254 13.2071 41.6141 13.2781 42.1027 13.2781C43.3941 13.2781 44.5109 12.7456 45.209 11.787C45.907 10.8284 46.1862 9.5503 45.8721 8.48521Z" fill="#5E12A0"/>
<path d="M40.8456 12.0335C44.0217 12.921 45.313 10.4357 44.8942 8.76713C44.4405 7.09849 42.9746 5.39435 40.3919 3.47719C37.8091 1.56003 35.1915 0.778964 33.5162 1.13399C31.8409 1.48902 31.3522 4.08074 31.7711 5.07482C31.9456 5.46535 32.3295 6.0334 32.853 6.67245C32.1899 7.13399 31.5616 7.48902 31.0381 7.80855C34.2491 9.26417 37.0413 11.5363 39.1354 14.3765C39.3797 13.418 39.7287 12.5659 40.0428 11.8203C40.2871 11.8558 40.5664 11.9269 40.8456 12.0335Z" fill="url(#paint0_radial_1944_1650)"/>
<path d="M22.6616 46.829C33.4368 46.829 42.1718 37.9436 42.1718 26.9829C42.1718 16.0222 33.4368 7.13672 22.6616 7.13672C11.8864 7.13672 3.15137 16.0222 3.15137 26.9829C3.15137 37.9436 11.8864 46.829 22.6616 46.829Z" fill="url(#paint1_radial_1944_1650)"/>
<path opacity="0.6" d="M43.2892 7.13685C40.6367 4.29661 38.403 3.55105 35.7155 2.9475C33.6214 2.45046 34.1798 1.24336 36.7277 1.49188C35.5061 1.06584 34.3543 0.959329 33.5167 1.13685C31.8414 1.49188 31.3527 4.08359 31.7716 5.07768C31.9461 5.46821 32.33 6.03626 32.8535 6.67531C31.9112 7.31436 31.1084 7.7759 30.4453 8.13093C30.7594 8.27294 31.1433 8.45046 31.5971 8.69898C32.7837 9.33803 34.0751 10.4031 34.0751 10.4031C32.1206 8.69898 32.5394 7.91791 35.2269 6.00075C36.0645 5.3972 37.6002 5.46821 39.0312 6.21377C40.4622 6.95933 42.1375 8.84099 42.1375 8.84099L40.532 11.9653C40.6367 12.0008 40.7414 12.0363 40.8461 12.0718C41.8583 12.3558 42.661 12.2848 43.2892 12.0363C44.0222 11.5747 45.9418 10.0126 43.2892 7.13685Z" fill="#A98698"/>
<path d="M35.6804 4.65085C36.3785 4.93488 37.2859 5.43192 38.4028 6.17748C39.7291 7.06506 40.8808 8.05914 41.6138 8.8402C40.3922 10.4733 39.5894 12.71 39.1008 14.2722C39.3451 14.6272 39.6243 14.9822 39.8687 15.3372C40.113 14.4497 40.5318 13.1361 41.0902 11.8224C41.2298 11.858 41.4043 11.858 41.5789 11.858C41.9977 11.858 42.4863 11.7869 42.8702 11.4674C43.1494 11.2544 43.4636 10.8639 43.4287 10.1538C43.4287 9.47926 42.9051 8.62719 41.8232 7.5976C41.0553 6.85204 40.0083 6.03547 38.9612 5.28991C35.9596 3.26624 33.8655 2.69819 32.9232 3.65677C32.2949 4.29582 32.3647 5.07689 32.5741 5.64494C31.4573 6.3905 30.5149 6.92304 29.8867 7.27807C30.3055 7.42008 30.6894 7.5976 31.1083 7.77512C32.2251 7.17157 33.8306 6.14198 35.6804 4.65085ZM42.2769 9.72778C42.3816 9.90529 42.4165 10.0828 42.4165 10.1893C42.4165 10.5088 42.3118 10.6154 42.242 10.6864C42.1024 10.7929 41.8232 10.8639 41.5789 10.8639C41.7883 10.4378 42.0326 10.0828 42.2769 9.72778ZM33.6561 4.43784C33.7608 4.33133 34.04 4.26032 34.4938 4.33133C34.1447 4.61535 33.7957 4.86387 33.4467 5.11239C33.4118 4.86387 33.4467 4.61535 33.6561 4.43784Z" fill="#5E12A0"/>
<path d="M22.662 5.96484C11.249 5.96484 2 15.3731 2 26.9826C2 38.5921 11.249 48.0004 22.662 48.0004C34.075 48.0004 43.324 38.5921 43.324 26.9826C43.324 15.3731 34.0401 5.96484 22.662 5.96484ZM22.662 46.8288C11.8773 46.8288 3.15177 37.953 3.15177 26.9826C3.15177 16.0122 11.8773 7.13643 22.662 7.13643C33.4467 7.13643 42.1722 16.0122 42.1722 26.9826C42.1722 37.953 33.4118 46.8288 22.662 46.8288Z" fill="#5E12A0"/>
<path opacity="0.6" d="M22.6616 46.829C33.4368 46.829 42.1718 37.9436 42.1718 26.9829C42.1718 16.0222 33.4368 7.13672 22.6616 7.13672C11.8864 7.13672 3.15137 16.0222 3.15137 26.9829C3.15137 37.9436 11.8864 46.829 22.6616 46.829Z" fill="url(#paint2_linear_1944_1650)"/>
<path opacity="0.6" d="M22.5225 44.4158C11.8773 42.6762 4.65258 32.4869 6.39768 21.6585C7.16553 16.8656 9.53886 12.7827 12.8895 9.83594C8.00317 12.7117 4.37337 17.7176 3.39611 23.8241C1.68591 34.6525 8.91063 44.8419 19.5209 46.5815C25.4542 47.5756 31.1782 45.694 35.4013 42.0016C31.6668 44.2028 27.1295 45.1614 22.5225 44.4158Z" fill="#A98698"/>
<path opacity="0.6" d="M25.7684 7.42171C20.8472 6.60514 16.0657 7.74124 12.1566 10.262C12.0868 10.333 12.017 10.404 12.017 10.404C13.5178 9.48088 15.7166 8.66432 15.7166 8.66432C10.0625 12.0016 8.31738 15.8004 8.31738 15.8004C10.5162 11.4691 16.9731 8.41579 22.0339 8.20278C27.0947 7.98976 30.4104 9.51639 34.459 12.8182C38.5077 16.1555 40.9508 22.972 40.7065 28.3685C40.4971 33.7649 37.7049 38.1318 37.7049 38.1318C39.6245 35.6111 40.7763 33.7649 41.5092 31.8833C41.6488 31.3152 41.7885 30.7472 41.8583 30.1436C43.6034 19.3507 36.4135 9.16136 25.7684 7.42171Z" fill="url(#paint3_linear_1944_1650)"/>
<path d="M41.1946 26.8047C41.1946 37.2071 32.8879 45.6568 22.6616 45.6568C12.4353 45.6568 4.09375 37.2071 4.09375 26.8047H41.1946Z" fill="url(#paint4_linear_1944_1650)"/>
<g opacity="0.6">
<path opacity="0.6" d="M39.7287 26.8047C39.7287 36.9585 31.8409 45.2662 21.9287 45.6568C22.173 45.6568 22.4173 45.6568 22.6616 45.6568C32.8879 45.6568 41.1946 37.2071 41.1946 26.8047H39.7287Z" fill="url(#paint5_linear_1944_1650)"/>
</g>
<g opacity="0.7">
<path opacity="0.7" d="M6.7114 26.8047H4.09375C4.09375 37.2071 12.4004 45.6568 22.6267 45.6568C23.0804 45.6568 23.4992 45.6568 23.9181 45.6213C14.32 44.9112 6.7114 36.7455 6.7114 26.8047Z" fill="url(#paint6_linear_1944_1650)"/>
</g>
<path d="M41.1597 26.9807C41.1597 24.8151 37.46 23.5725 32.5389 23.1464C28.9789 22.8624 25.3839 23.2174 21.2655 24.4955C17.7055 25.5606 14.4945 25.3831 12.1561 25.0991C6.95571 24.4955 4.09375 24.4245 4.09375 26.9807C4.09375 30.673 11.493 35.2884 22.5918 33.6908C28.211 32.8742 31.1079 31.2056 34.4236 30.0695C38.0185 28.8624 41.1597 28.8979 41.1597 26.9807Z" fill="url(#paint7_linear_1944_1650)"/>
<path d="M28.735 18.0351C30.4698 18.0351 31.8762 16.6045 31.8762 14.8398C31.8762 13.0751 30.4698 11.6445 28.735 11.6445C27.0002 11.6445 25.5938 13.0751 25.5938 14.8398C25.5938 16.6045 27.0002 18.0351 28.735 18.0351Z" fill="white"/>
<path d="M33.8654 20.413C34.5979 20.413 35.1917 19.809 35.1917 19.0639C35.1917 18.3188 34.5979 17.7148 33.8654 17.7148C33.1329 17.7148 32.5391 18.3188 32.5391 19.0639C32.5391 19.809 33.1329 20.413 33.8654 20.413Z" fill="white"/>
<g opacity="0.6">
<path opacity="0.6" d="M38.612 12.2841C38.5771 12.2841 38.5422 12.2841 38.5422 12.2841C38.3327 12.2486 38.1931 12.0356 38.228 11.787C38.5422 10.1539 39.8684 8.59176 39.9382 8.52076C40.0779 8.34324 40.3571 8.34324 40.4967 8.48526C40.6712 8.62727 40.6712 8.91129 40.5316 9.0533C40.4967 9.0888 39.2751 10.5444 38.9959 11.9645C38.961 12.1776 38.7865 12.2841 38.612 12.2841Z" fill="url(#paint8_linear_1944_1650)"/>
</g>
<path opacity="0.2" d="M21.3728 41.7851C21.9125 41.7851 22.35 41.34 22.35 40.791C22.35 40.242 21.9125 39.7969 21.3728 39.7969C20.8331 39.7969 20.3955 40.242 20.3955 40.791C20.3955 41.34 20.8331 41.7851 21.3728 41.7851Z" fill="white"/>
<g opacity="0.4">
<path opacity="0.6" d="M20.8123 41.4336C20.4284 41.043 20.4284 40.404 20.8123 40.0135C20.8821 39.9425 20.9519 39.907 21.0217 39.8359C20.8821 39.8715 20.7774 39.9425 20.6727 40.049C20.2888 40.4395 20.2888 41.0785 20.6727 41.4691C20.9868 41.7886 21.4754 41.8596 21.8594 41.6466C21.5103 41.7886 21.0915 41.7176 20.8123 41.4336Z" fill="url(#paint9_linear_1944_1650)"/>
</g>
<path opacity="0.3" d="M21.7201 40.508C21.8357 40.508 21.9295 40.4127 21.9295 40.295C21.9295 40.1774 21.8357 40.082 21.7201 40.082C21.6044 40.082 21.5107 40.1774 21.5107 40.295C21.5107 40.4127 21.6044 40.508 21.7201 40.508Z" fill="white"/>
<path opacity="0.2" d="M26.4685 41.2889C27.0082 41.2889 27.4457 40.8439 27.4457 40.2948C27.4457 39.7458 27.0082 39.3008 26.4685 39.3008C25.9288 39.3008 25.4912 39.7458 25.4912 40.2948C25.4912 40.8439 25.9288 41.2889 26.4685 41.2889Z" fill="white"/>
<g opacity="0.4">
<path opacity="0.6" d="M25.908 40.9374C25.5241 40.5469 25.5241 39.9078 25.908 39.5173C25.9778 39.4463 26.0476 39.4108 26.1174 39.3398C25.9778 39.3753 25.8731 39.4463 25.7684 39.5528C25.3845 39.9433 25.3845 40.5824 25.7684 40.9729C26.0825 41.2925 26.5711 41.3635 26.9551 41.1504C26.606 41.2925 26.1872 41.2214 25.908 40.9374Z" fill="url(#paint10_linear_1944_1650)"/>
</g>
<path opacity="0.3" d="M26.8158 40.012C26.9314 40.012 27.0252 39.9166 27.0252 39.799C27.0252 39.6813 26.9314 39.5859 26.8158 39.5859C26.7001 39.5859 26.6064 39.6813 26.6064 39.799C26.6064 39.9166 26.7001 40.012 26.8158 40.012Z" fill="white"/>
<path opacity="0.2" d="M23.9536 43.5967C24.3584 43.5967 24.6865 43.2629 24.6865 42.8511C24.6865 42.4393 24.3584 42.1055 23.9536 42.1055C23.5488 42.1055 23.2207 42.4393 23.2207 42.8511C23.2207 43.2629 23.5488 43.5967 23.9536 43.5967Z" fill="white"/>
<g opacity="0.4">
<path opacity="0.6" d="M23.5348 43.3161C23.2556 43.032 23.2556 42.535 23.5348 42.251C23.5697 42.2155 23.6395 42.18 23.6744 42.1445C23.5697 42.18 23.4999 42.251 23.4301 42.322C23.1509 42.606 23.1509 43.103 23.4301 43.3871C23.6744 43.6356 24.0234 43.6711 24.3375 43.4936C24.0583 43.6001 23.7442 43.5291 23.5348 43.3161Z" fill="url(#paint11_linear_1944_1650)"/>
</g>
<path opacity="0.3" d="M24.1972 42.6044C24.2743 42.6044 24.3368 42.5408 24.3368 42.4623C24.3368 42.3839 24.2743 42.3203 24.1972 42.3203C24.1201 42.3203 24.0576 42.3839 24.0576 42.4623C24.0576 42.5408 24.1201 42.6044 24.1972 42.6044Z" fill="white"/>
<path opacity="0.2" d="M28.4556 43.0654C28.8604 43.0654 29.1886 42.7316 29.1886 42.3198C29.1886 41.908 28.8604 41.5742 28.4556 41.5742C28.0508 41.5742 27.7227 41.908 27.7227 42.3198C27.7227 42.7316 28.0508 43.0654 28.4556 43.0654Z" fill="white"/>
<g opacity="0.4">
<path opacity="0.6" d="M28.0368 42.7809C27.7576 42.4969 27.7576 41.9999 28.0368 41.7159C28.0717 41.6804 28.1415 41.6449 28.1764 41.6094C28.0717 41.6449 28.0019 41.7159 27.9321 41.7869C27.6529 42.0709 27.6529 42.5679 27.9321 42.852C28.1764 43.1005 28.5254 43.136 28.8395 42.9585C28.5603 43.065 28.2462 42.994 28.0368 42.7809Z" fill="url(#paint12_linear_1944_1650)"/>
</g>
<path opacity="0.3" d="M28.7001 42.0692C28.7772 42.0692 28.8397 42.0057 28.8397 41.9272C28.8397 41.8488 28.7772 41.7852 28.7001 41.7852C28.623 41.7852 28.5605 41.8488 28.5605 41.9272C28.5605 42.0057 28.623 42.0692 28.7001 42.0692Z" fill="white"/>
<path opacity="0.2" d="M17.2168 41.4304C18.1034 41.4304 18.8222 40.6992 18.8222 39.7973C18.8222 38.8953 18.1034 38.1641 17.2168 38.1641C16.3301 38.1641 15.6113 38.8953 15.6113 39.7973C15.6113 40.6992 16.3301 41.4304 17.2168 41.4304Z" fill="white"/>
<g opacity="0.4">
<path opacity="0.6" d="M16.3104 40.8296C15.6822 40.1905 15.6822 39.1609 16.3104 38.5219C16.4151 38.4154 16.5198 38.3444 16.6594 38.2734C16.45 38.3444 16.2755 38.4864 16.101 38.6284C15.4728 39.2675 15.4728 40.297 16.101 40.9361C16.6245 41.4686 17.4273 41.5751 18.0555 41.1846C17.4622 41.4331 16.7641 41.3266 16.3104 40.8296Z" fill="url(#paint13_linear_1944_1650)"/>
</g>
<path opacity="0.3" d="M17.7758 39.3038C17.9685 39.3038 18.1248 39.1448 18.1248 38.9487C18.1248 38.7526 17.9685 38.5938 17.7758 38.5938C17.583 38.5938 17.4268 38.7526 17.4268 38.9487C17.4268 39.1448 17.583 39.3038 17.7758 39.3038Z" fill="white"/>
<path opacity="0.2" d="M31.5624 37.4186C32.4491 37.4186 33.1679 36.6874 33.1679 35.7854C33.1679 34.8835 32.4491 34.1523 31.5624 34.1523C30.6758 34.1523 29.957 34.8835 29.957 35.7854C29.957 36.6874 30.6758 37.4186 31.5624 37.4186Z" fill="white"/>
<g opacity="0.4">
<path opacity="0.6" d="M30.6201 36.8179C29.9918 36.1788 29.9918 35.1492 30.6201 34.5102C30.7248 34.4037 30.8295 34.3327 30.9691 34.2617C30.7597 34.3327 30.5852 34.4747 30.4107 34.6167C29.7824 35.2557 29.7824 36.2853 30.4107 36.9244C30.9342 37.4569 31.7369 37.5634 32.3652 37.1729C31.7718 37.4214 31.1087 37.3149 30.6201 36.8179Z" fill="url(#paint14_linear_1944_1650)"/>
</g>
<path opacity="0.3" d="M32.1205 35.292C32.3133 35.292 32.4696 35.1331 32.4696 34.937C32.4696 34.7409 32.3133 34.582 32.1205 34.582C31.9278 34.582 31.7715 34.7409 31.7715 34.937C31.7715 35.1331 31.9278 35.292 32.1205 35.292Z" fill="white"/>
</g>
<defs>
<radialGradient id="paint0_radial_1944_1650" cx="0" cy="0" r="1" gradientUnits="userSpaceOnUse" gradientTransform="translate(44.2576 6.53041) scale(15.5992 15.8678)">
<stop stop-color="#FFEAFF" stop-opacity="0.6"/>
<stop offset="0.6807" stop-color="#A087C9"/>
<stop offset="1" stop-color="#10002F"/>
</radialGradient>
<radialGradient id="paint1_radial_1944_1650" cx="0" cy="0" r="1" gradientUnits="userSpaceOnUse" gradientTransform="translate(35.579 13.3006) scale(38.1657 38.8229)">
<stop stop-color="#FFEAFF" stop-opacity="0.6"/>
<stop offset="0.6807" stop-color="#A087C9"/>
<stop offset="1" stop-color="#10002F"/>
</radialGradient>
<linearGradient id="paint2_linear_1944_1650" x1="19.532" y1="46.5475" x2="25.9834" y2="7.42014" gradientUnits="userSpaceOnUse">
<stop stop-color="#81FFFF"/>
<stop offset="0.6202" stop-color="white" stop-opacity="0"/>
</linearGradient>
<linearGradient id="paint3_linear_1944_1650" x1="36.4119" y1="13.5057" x2="20.0273" y2="28.2845" gradientUnits="userSpaceOnUse">
<stop offset="0.2888" stop-color="white"/>
<stop offset="0.7796" stop-color="white" stop-opacity="0"/>
</linearGradient>
<linearGradient id="paint4_linear_1944_1650" x1="4.10945" y1="36.2197" x2="41.1856" y2="36.2197" gradientUnits="userSpaceOnUse">
<stop stop-color="#0002E9"/>
<stop offset="0.9952" stop-color="#FF00C7"/>
</linearGradient>
<linearGradient id="paint5_linear_1944_1650" x1="42.9407" y1="28.4589" x2="22.4356" y2="47.5094" gradientUnits="userSpaceOnUse">
<stop offset="0.2888" stop-color="white"/>
<stop offset="0.7796" stop-color="white" stop-opacity="0"/>
</linearGradient>
<linearGradient id="paint6_linear_1944_1650" x1="4.10945" y1="36.2197" x2="23.945" y2="36.2197" gradientUnits="userSpaceOnUse">
<stop stop-color="#000292"/>
<stop offset="0.9952" stop-color="#7D00C7"/>
</linearGradient>
<linearGradient id="paint7_linear_1944_1650" x1="4.13434" y1="28.5469" x2="41.1607" y2="28.5469" gradientUnits="userSpaceOnUse">
<stop stop-color="#000292"/>
<stop offset="0.9952" stop-color="#BE00C7"/>
</linearGradient>
<linearGradient id="paint8_linear_1944_1650" x1="40.5533" y1="8.34786" x2="37.8258" y2="12.7051" gradientUnits="userSpaceOnUse">
<stop offset="0.2888" stop-color="white"/>
<stop offset="0.7796" stop-color="white" stop-opacity="0"/>
</linearGradient>
<linearGradient id="paint9_linear_1944_1650" x1="20.3838" y1="40.825" x2="21.8604" y2="40.825" gradientUnits="userSpaceOnUse">
<stop offset="0.2888" stop-color="white"/>
<stop offset="0.7796" stop-color="white" stop-opacity="0"/>
</linearGradient>
<linearGradient id="paint10_linear_1944_1650" x1="25.4759" y1="40.3221" x2="26.9526" y2="40.3221" gradientUnits="userSpaceOnUse">
<stop offset="0.2888" stop-color="white"/>
<stop offset="0.7796" stop-color="white" stop-opacity="0"/>
</linearGradient>
<linearGradient id="paint11_linear_1944_1650" x1="23.2161" y1="42.863" x2="24.3247" y2="42.863" gradientUnits="userSpaceOnUse">
<stop offset="0.2888" stop-color="white"/>
<stop offset="0.7796" stop-color="white" stop-opacity="0"/>
</linearGradient>
<linearGradient id="paint12_linear_1944_1650" x1="27.703" y1="42.3265" x2="28.8116" y2="42.3265" gradientUnits="userSpaceOnUse">
<stop offset="0.2888" stop-color="white"/>
<stop offset="0.7796" stop-color="white" stop-opacity="0"/>
</linearGradient>
<linearGradient id="paint13_linear_1944_1650" x1="15.6138" y1="39.8416" x2="18.0253" y2="39.8416" gradientUnits="userSpaceOnUse">
<stop offset="0.2888" stop-color="white"/>
<stop offset="0.7796" stop-color="white" stop-opacity="0"/>
</linearGradient>
<linearGradient id="paint14_linear_1944_1650" x1="29.9368" y1="35.8287" x2="32.3484" y2="35.8287" gradientUnits="userSpaceOnUse">
<stop offset="0.2888" stop-color="white"/>
<stop offset="0.7796" stop-color="white" stop-opacity="0"/>
</linearGradient>
<clipPath id="clip0_1944_1650">
<rect width="48" height="48" fill="white"/>
</clipPath>
</defs>
</svg>
